# Blender 3.4.1
# www.blender.org
mtllib side_double_corner_1.mtl
o terrain_sideCorner
v -0.500000 -0.000000 0.500000
v -0.500000 0.000000 -0.500000
v -0.250000 0.000000 -0.250000
v 0.500000 0.000000 -0.500000
v 0.500000 0.500000 0.500000
v 0.250000 0.500000 0.500000
v 0.500000 0.500000 0.250000
v 0.312500 0.500000 0.312500
v 0.000000 0.500000 0.500000
v 0.125000 0.500000 0.125000
v 0.500000 0.500000 0.000000
vn -0.0000 1.0000 -0.0000
vn -0.6882 0.6882 -0.2294
vn -0.2294 0.6882 -0.6882
vt 0.000000 39.370079
vt 12.449910 -25.705851
vt 39.370079 39.370079
vt 29.527559 29.527559
vt -18.674870 -25.705851
vt 18.674870 -25.705851
vt 39.370079 0.000000
vt -12.449910 -25.705851
vt 0.000000 0.000000
vt 0.000000 9.842520
vt 9.842521 -0.000000
vt 7.381890 7.381889
vt 0.000000 19.685040
vt 6.224956 1.428103
vt 14.763780 14.763780
vt -9.337434 1.428103
vt 9.337434 1.428103
vt 19.685040 0.000000
vt -6.224956 1.428103
s 0
usemtl rock
f 3/4/1 2/3/1 1/1/1
f 2/3/1 3/4/1 4/7/1
f 7/11/1 6/10/1 5/9/1
f 6/10/1 7/11/1 8/12/1
usemtl rockDark
f 6/10/1 10/15/1 9/13/1
f 10/15/1 6/10/1 8/12/1
f 10/15/1 8/12/1 7/11/1
f 10/15/1 7/11/1 11/18/1
f 10/16/2 1/2/2 9/14/2
f 1/2/2 10/16/2 3/5/2
f 11/19/3 3/6/3 10/17/3
f 3/6/3 11/19/3 4/8/3
o terrain_sideCorner.001
v 0.500000 -0.000000 -0.500000
v 0.500000 0.000000 0.500000
v 0.250000 0.000000 0.250000
v -0.500000 0.000000 0.500000
v -0.500000 0.500000 -0.500000
v -0.250000 0.500000 -0.500000
v -0.500000 0.500000 -0.250000
v -0.312500 0.500000 -0.312500
v -0.000000 0.500000 -0.500000
v -0.125000 0.500000 -0.125000
v -0.500000 0.500000 0.000000
vn -0.0000 1.0000 -0.0000
vn 0.6882 0.6882 0.2294
vn 0.2294 0.6882 0.6882
vt 0.000000 39.370079
vt 12.449910 -25.705851
vt 39.370079 39.370079
vt 29.527559 29.527559
vt -18.674870 -25.705851
vt 18.674870 -25.705851
vt 39.370079 0.000000
vt -12.449910 -25.705851
vt 0.000000 0.000000
vt 0.000000 9.842520
vt 9.842521 -0.000000
vt 7.381890 7.381889
vt 0.000000 19.685040
vt 6.224956 1.428103
vt 14.763780 14.763780
vt -9.337434 1.428103
vt 9.337434 1.428103
vt 19.685040 0.000000
vt -6.224956 1.428103
s 0
usemtl rock.002
f 14/23/4 13/22/4 12/20/4
f 13/22/4 14/23/4 15/26/4
f 18/30/4 17/29/4 16/28/4
f 17/29/4 18/30/4 19/31/4
usemtl rockDark.002
f 17/29/4 21/34/4 20/32/4
f 21/34/4 17/29/4 19/31/4
f 21/34/4 19/31/4 18/30/4
f 21/34/4 18/30/4 22/37/4
f 21/35/5 12/21/5 20/33/5
f 12/21/5 21/35/5 14/24/5
f 22/38/6 14/25/6 21/36/6
f 14/25/6 22/38/6 15/27/6
