# Blender 3.4.1
# www.blender.org
mtllib side_inner_pos_z_pos_x.mtl
o terrain_sideCornerInner
v 0.500000 -0.000000 0.500000
v 0.000000 0.500000 0.500000
v 0.500000 0.500000 -0.000000
v 0.500000 0.500000 -0.250000
v 0.376136 0.500000 -0.188436
v -0.187253 0.500000 0.374506
v -0.250000 0.500000 0.500000
v -0.500000 0.500000 -0.500000
v 0.500000 0.500000 -0.500000
v -0.500000 0.500000 0.500000
vn 0.5774 0.5774 0.5774
vn -0.0000 1.0000 -0.0000
vt 0.000000 -32.145531
vt -13.919430 -8.036384
vt 39.370079 19.685040
vt 13.919430 -8.036384
vt 19.685040 39.370079
vt 9.842521 39.370079
vt 12.266310 34.493549
vt 34.429379 12.312870
vt 39.370079 9.842520
vt 0.000000 0.000000
vt 0.000000 39.370079
vt 39.370079 0.000000
s 0
usemtl rockDark.001
f 3/4/1 2/2/1 1/1/1
f 5/7/2 3/5/2 4/6/2
f 3/5/2 5/7/2 6/8/2
f 3/5/2 6/8/2 2/3/2
f 2/3/2 6/8/2 7/9/2
usemtl rock.001
f 10/12/2 9/11/2 8/10/2
f 9/11/2 10/12/2 5/7/2
f 9/11/2 5/7/2 4/6/2
f 5/7/2 10/12/2 6/8/2
f 6/8/2 10/12/2 7/9/2
